# xmcd
#
# Track frame offsets:
#	150
#	18253
#	34764
#	39322
#	55046
#	68770
#	82451
#	97490
#	114342
#	126222
#	139457
#	156631
#	176085
#
# Disc length: 2560 seconds
#
# Revision: 0
# Processed by: cddbd v1.5.2PL0 Copyright (c) Steve Scherf et al.
# Submitted via: EasyCDDAExtractor 11.9.9.666
#
DISCID=be09fe0d
DTITLE=Bobby Mitchell - Redneck Havin Fun
DYEAR=2002
DGENRE=Country
TTITLE0=That's What Tequila Does
TTITLE1=The Moonpie Song
TTITLE2=Intro to the Rooster Song
TTITLE3=Rooster With Webbed Feet
TTITLE4=2:15 In The Morning
TTITLE5=Floatin On The Guadalupe
TTITLE6=My 30:06
TTITLE7=Blue Ribbon
TTITLE8=Seaweed On The Beach
TTITLE9=I'm Hung
TTITLE10=Sir I'm Sellin Love
TTITLE11=Modern Hobo
TTITLE12=1%er's Theme Song
EXTD=
EXTT0=
EXTT1=
EXTT2=
EXTT3=
EXTT4=
EXTT5=
EXTT6=
EXTT7=
EXTT8=
EXTT9=
EXTT10=
EXTT11=
EXTT12=
PLAYORDER=
